<svg xmlns="http://www.w3.org/2000/svg" viewBox="0 0 200 200" width="200" height="200">
  <rect width="200" height="200" fill="white"/>
  <g fill="#1A1A1A">
    <!-- QR-like pattern -->
    <!-- Top-left finder -->
    <rect x="20" y="20" width="50" height="50" rx="4"/>
    <rect x="26" y="26" width="38" height="38" rx="2" fill="white"/>
    <rect x="32" y="32" width="26" height="26" rx="2"/>
    <!-- Top-right finder -->
    <rect x="130" y="20" width="50" height="50" rx="4"/>
    <rect x="136" y="26" width="38" height="38" rx="2" fill="white"/>
    <rect x="142" y="32" width="26" height="26" rx="2"/>
    <!-- Bottom-left finder -->
    <rect x="20" y="130" width="50" height="50" rx="4"/>
    <rect x="26" y="136" width="38" height="38" rx="2" fill="white"/>
    <rect x="32" y="142" width="26" height="26" rx="2"/>
    <!-- Data modules -->
    <rect x="80" y="20" width="8" height="8" rx="1"/>
    <rect x="96" y="20" width="8" height="8" rx="1"/>
    <rect x="112" y="20" width="8" height="8" rx="1"/>
    <rect x="80" y="36" width="8" height="8" rx="1"/>
    <rect x="112" y="36" width="8" height="8" rx="1"/>
    <rect x="80" y="52" width="8" height="8" rx="1"/>
    <rect x="96" y="52" width="8" height="8" rx="1"/>
    <rect x="20" y="80" width="8" height="8" rx="1"/>
    <rect x="36" y="80" width="8" height="8" rx="1"/>
    <rect x="52" y="80" width="8" height="8" rx="1"/>
    <rect x="80" y="80" width="8" height="8" rx="1"/>
    <rect x="96" y="80" width="8" height="8" rx="1"/>
    <rect x="112" y="80" width="8" height="8" rx="1"/>
    <rect x="140" y="80" width="8" height="8" rx="1"/>
    <rect x="156" y="80" width="8" height="8" rx="1"/>
    <rect x="172" y="80" width="8" height="8" rx="1"/>
    <rect x="20" y="96" width="8" height="8" rx="1"/>
    <rect x="52" y="96" width="8" height="8" rx="1"/>
    <rect x="80" y="96" width="8" height="8" rx="1"/>
    <rect x="112" y="96" width="8" height="8" rx="1"/>
    <rect x="140" y="96" width="8" height="8" rx="1"/>
    <rect x="172" y="96" width="8" height="8" rx="1"/>
    <rect x="20" y="112" width="8" height="8" rx="1"/>
    <rect x="36" y="112" width="8" height="8" rx="1"/>
    <rect x="52" y="112" width="8" height="8" rx="1"/>
    <rect x="80" y="112" width="8" height="8" rx="1"/>
    <rect x="96" y="112" width="8" height="8" rx="1"/>
    <rect x="112" y="112" width="8" height="8" rx="1"/>
    <rect x="140" y="112" width="8" height="8" rx="1"/>
    <rect x="156" y="112" width="8" height="8" rx="1"/>
    <rect x="96" y="130" width="8" height="8" rx="1"/>
    <rect x="112" y="130" width="8" height="8" rx="1"/>
    <rect x="140" y="130" width="8" height="8" rx="1"/>
    <rect x="172" y="130" width="8" height="8" rx="1"/>
    <rect x="80" y="146" width="8" height="8" rx="1"/>
    <rect x="112" y="146" width="8" height="8" rx="1"/>
    <rect x="140" y="146" width="8" height="8" rx="1"/>
    <rect x="156" y="146" width="8" height="8" rx="1"/>
    <rect x="80" y="162" width="8" height="8" rx="1"/>
    <rect x="96" y="162" width="8" height="8" rx="1"/>
    <rect x="112" y="162" width="8" height="8" rx="1"/>
    <rect x="140" y="162" width="8" height="8" rx="1"/>
    <rect x="172" y="162" width="8" height="8" rx="1"/>
    <!-- Accent -->
    <rect x="96" y="96" width="8" height="8" rx="1" fill="#FAC411"/>
  </g>
</svg>
